<svg id="Layer_1" data-name="Layer 1" xmlns="http://www.w3.org/2000/svg" xmlns:xlink="http://www.w3.org/1999/xlink" viewBox="0 0 767.08 197.53"><defs><style>.cls-1,.cls-15,.cls-16,.cls-17,.cls-18,.cls-29,.cls-37{fill:#fff;}.cls-2,.cls-4{fill:#010101;}.cls-21,.cls-22,.cls-3,.cls-9{fill:#f5c843;}.cls-21,.cls-22,.cls-3{stroke:#a17943;}.cls-15,.cls-3,.cls-4,.cls-5,.cls-6{stroke-width:0.53px;}.cls-15,.cls-27,.cls-31,.cls-32,.cls-4{stroke:#010101;}.cls-5{fill:#ed2224;stroke:#8a181a;}.cls-6{stroke:#177eb5;fill:url(#radial-gradient);}.cls-15,.cls-16,.cls-17,.cls-18,.cls-29,.cls-6{fill-rule:evenodd;opacity:1;isolation:isolate;}.cls-7{fill:#feeaa3;}.cls-8{fill:#a17943;}.cls-10,.cls-11,.cls-12,.cls-13,.cls-14,.cls-19{fill:#029b4c;stroke:#056b37;}.cls-10{stroke-width:0.23px;}.cls-11{stroke-width:0.24px;}.cls-12{stroke-width:0.25px;}.cls-13{stroke-width:0.26px;}.cls-14{stroke-width:0.27px;}.cls-16,.cls-17,.cls-18,.cls-20{stroke:#6a6a6a;}.cls-16{stroke-width:0.2px;}.cls-17{stroke-width:0.25px;}.cls-18{stroke-width:0.28px;}.cls-19,.cls-20,.cls-24,.cls-26,.cls-33{stroke-width:0.26px;}.cls-20{fill:#f5f6f6;}.cls-21{stroke-width:0.27px;}.cls-22{stroke-width:0.27px;}.cls-23,.cls-26{fill:#fdee19;}.cls-24{fill:#e9e8e8;}.cls-24,.cls-30{stroke:#aaa;}.cls-25{fill:#aaa;}.cls-26{stroke:#c7be2e;}.cls-27,.cls-28,.cls-31,.cls-32{fill:none;}.cls-28{stroke:#fff;stroke-width:1.47px;}.cls-30{fill:#dcdcdc;}.cls-30,.cls-32,.cls-36{stroke-width:0.17px;}.cls-31{stroke-width:0.67px;}.cls-33{fill:#f6eb16;stroke:#c1c231;}.cls-34{fill:#f9f06e;}.cls-35{fill:#faf392;}.cls-36{stroke:#af1f24;fill:url(#linear-gradient);}.cls-37{stroke:#231f20;stroke-miterlimit:10;stroke-width:3px;}.cls-38{fill:#231f20;}.cls-39{fill:#23272a;}.cls-40{fill:#23272b;}.cls-41{fill:#24282c;}.cls-42{fill:#24282b;}.cls-43{fill:#25292c;}.cls-44{fill:#282c2f;}</style><radialGradient id="radial-gradient" cx="67.41" cy="92.49" r="11.14" gradientTransform="matrix(1.86, 0, 0, -1.7, -14.05, 201.08)" gradientUnits="userSpaceOnUse"><stop offset="0" stop-color="#d2edfb"/><stop offset="1" stop-color="#a3d9f6"/></radialGradient><linearGradient id="linear-gradient" x1="86.27" y1="43.21" x2="86.27" y2="43.6" gradientTransform="matrix(3.78, 0, 0, -3.78, -214.76, 316.87)" gradientUnits="userSpaceOnUse"><stop offset="0" stop-color="#ed2224"/><stop offset="1" stop-color="#f6eb16"/></linearGradient></defs><title>logo-bkd</title><g id="g1840"><path id="path31" class="cls-1" d="M37.53,2.35v119.4c0,19,9.83,37.66,23.8,51.95s32.16,24.36,49.78,25.64h.45c17.62-1.28,35.81-11.35,49.78-25.64s23.8-32.95,23.8-51.95V2.35H37.53Z" transform="translate(-37.27 -2.09)"/><path id="path33" class="cls-2" d="M45.72,10.54V21.11H177V10.54H45.72Z" transform="translate(-37.27 -2.09)"/><g id="g59"><path id="path35" class="cls-1" d="M46.91,11.86h2.25v3l2.36-3h3l-2.65,3,2.77,4.94H51.85l-1.53-3.26-1.16,1.32v1.94H46.91Z" transform="translate(-37.27 -2.09)"/><path id="path37" class="cls-1" d="M59.85,18.48H57.29l-.36,1.31h-2.3l2.74-7.93h2.45l2.74,7.93H60.21Zm-.47-1.71-.81-2.85-.8,2.85Zm3.91-4.91H67.5a2.15,2.15,0,0,1,1.61.57,1.92,1.92,0,0,1,.57,1.41,1.89,1.89,0,0,1-.4,1.2,1.72,1.72,0,0,1-.79.53,1.86,1.86,0,0,1,1.52,2,2.25,2.25,0,0,1-.26,1.11,1.94,1.94,0,0,1-.72.78,2.13,2.13,0,0,1-.85.26,10.12,10.12,0,0,1-1,.11H63.28ZM65.56,15h1a1,1,0,0,0,.73-.19.75.75,0,0,0,.21-.57.7.7,0,0,0-.21-.54,1,1,0,0,0-.71-.2h-1Zm0,3.12H66.7a1.18,1.18,0,0,0,.82-.23.78.78,0,0,0,.24-.6.7.7,0,0,0-.24-.56,1.17,1.17,0,0,0-.82-.22H65.56Zm10.11-6.23h2.24v4.73a4.46,4.46,0,0,1-.2,1.33A2.84,2.84,0,0,1,77.08,19a2.5,2.5,0,0,1-.9.65,4.12,4.12,0,0,1-1.57.27,10.15,10.15,0,0,1-1.17-.08,3,3,0,0,1-1-.32,2.77,2.77,0,0,1-.78-.69,2.48,2.48,0,0,1-.47-.91,5.11,5.11,0,0,1-.21-1.34V11.86h2.24V16.7a1.49,1.49,0,0,0,.33,1,1.19,1.19,0,0,0,.92.36,1.17,1.17,0,0,0,.91-.36,1.46,1.46,0,0,0,.33-1Zm3.72,0h3.74A2.42,2.42,0,0,1,85,12.5a2.47,2.47,0,0,1,.61,1.8,2.56,2.56,0,0,1-.66,1.87,2.73,2.73,0,0,1-2,.68H81.65v2.94H79.39Zm2.26,3.38h.55a1.37,1.37,0,0,0,.92-.24.86.86,0,0,0,.26-.63,1,1,0,0,0-.23-.64,1.13,1.13,0,0,0-.86-.26h-.64Z" transform="translate(-37.27 -2.09)"/><path id="use39" class="cls-1" d="M90.36,18.48H87.8l-.35,1.31h-2.3l2.73-7.93h2.46l2.73,7.93H90.72Zm-.47-1.71-.8-2.85-.8,2.85Z" transform="translate(-37.27 -2.09)"/><path id="path41" class="cls-1" d="M92.58,11.86h6.84v2H97.13v6H94.88v-6h-2.3Z" transform="translate(-37.27 -2.09)"/><path id="use43" class="cls-1" d="M100.43,11.86h6v1.7h-3.77v1.26h3.5v1.61h-3.5V18h3.88v1.8h-6.14Z" transform="translate(-37.27 -2.09)"/><path id="use45" class="cls-1" d="M107.8,11.86h2.1l2.74,4.39V11.86h2.12v7.93h-2.12l-2.73-4.35v4.35H107.8Z" transform="translate(-37.27 -2.09)"/><path id="path47" class="cls-1" d="M119.68,19.79V11.86h3.75a5,5,0,0,1,1.59.2,1.73,1.73,0,0,1,.89.72,2.29,2.29,0,0,1,.34,1.28,2.47,2.47,0,0,1-.26,1.15,2.18,2.18,0,0,1-.71.77,2.7,2.7,0,0,1-.79.31,2.68,2.68,0,0,1,.59.29,2.67,2.67,0,0,1,.35.42,3,3,0,0,1,.32.49l1.09,2.3H124.3l-1.2-2.42a1.82,1.82,0,0,0-.41-.61.86.86,0,0,0-.55-.19h-.2v3.22Zm2.26-4.72h1a3,3,0,0,0,.59-.1.61.61,0,0,0,.36-.25.77.77,0,0,0,.15-.46.79.79,0,0,0-.22-.59,1.25,1.25,0,0,0-.84-.21h-1Z" transform="translate(-37.27 -2.09)"/><path id="use49" class="cls-1" d="M127.55,11.86h6v1.7h-3.77v1.26h3.5v1.61h-3.5V18h3.88v1.8h-6.14Z" transform="translate(-37.27 -2.09)"/><path id="path51" class="cls-1" d="M134.88,11.86h3L139,16.69l1.14-4.83h2.95v7.93h-1.84v-6l-1.42,6h-1.67l-1.42-6v6h-1.84Zm9.63,0h4.21a2.15,2.15,0,0,1,1.61.57,1.92,1.92,0,0,1,.57,1.41,1.83,1.83,0,0,1-.4,1.2,1.72,1.72,0,0,1-.79.53,2,2,0,0,1,1.15.71,2,2,0,0,1,.38,1.25,2.25,2.25,0,0,1-.27,1.11,1.94,1.94,0,0,1-.72.78,2.13,2.13,0,0,1-.85.26,9.82,9.82,0,0,1-1,.11h-3.88ZM146.78,15h1a1.07,1.07,0,0,0,.73-.19.79.79,0,0,0,.2-.57.73.73,0,0,0-.2-.54,1.05,1.05,0,0,0-.72-.2h-1Zm0,3.12h1.15a1.15,1.15,0,0,0,.81-.23.78.78,0,0,0,.24-.6.7.7,0,0,0-.24-.56,1.15,1.15,0,0,0-.82-.22h-1.14Z" transform="translate(-37.27 -2.09)"/><path id="use53" class="cls-1" d="M156.72,18.48h-2.56l-.35,1.31h-2.3l2.73-7.93h2.46l2.73,7.93h-2.35Zm-.47-1.71-.8-2.85-.8,2.85Z" transform="translate(-37.27 -2.09)"/><path id="use55" class="cls-1" d="M160.17,11.86h2.1L165,16.25V11.86h2.12v7.93H165l-2.73-4.35v4.35h-2.11Z" transform="translate(-37.27 -2.09)"/><path id="path57" class="cls-1" d="M172.28,16.92V15.27h3.48v3.38a7.06,7.06,0,0,1-1.77,1,5.72,5.72,0,0,1-1.81.26,4.16,4.16,0,0,1-2.12-.48A3.29,3.29,0,0,1,168.79,18a5.17,5.17,0,0,1-.44-2.18,4.86,4.86,0,0,1,.49-2.26,3.38,3.38,0,0,1,1.44-1.46,4.43,4.43,0,0,1,2-.38,5.08,5.08,0,0,1,1.8.24,2.37,2.37,0,0,1,1,.74,3.35,3.35,0,0,1,.59,1.26l-2.17.43a1.31,1.31,0,0,0-.45-.69,1.35,1.35,0,0,0-.82-.24A1.43,1.43,0,0,0,171,14a2.9,2.9,0,0,0-.44,1.77,3,3,0,0,0,.44,1.84,1.5,1.5,0,0,0,1.24.55,2.09,2.09,0,0,0,.72-.12,3.54,3.54,0,0,0,.79-.41v-.74Z" transform="translate(-37.27 -2.09)"/></g><g id="g69"><path id="path61" class="cls-3" d="M37.53,2.35v119.4c0,19,9.83,37.66,23.8,51.95s32.16,24.36,49.78,25.64h.45c17.62-1.28,35.81-11.35,49.78-25.64s23.8-32.95,23.8-51.95V2.35H37.53Zm6.21,6.21H178.93V23.09H43.74Zm0,20.74H62.07v92.45c0,10.64,6.27,24,16.81,34.79,9.88,10.11,22.53,16.58,32,18l.46.07.47-.07c9.46-1.45,22.11-7.92,32-18,10.54-10.79,16.8-24.15,16.8-34.79V29.3h18.34v92.45c0,16.83-8.94,34.22-22,47.61s-30.08,22.55-45.57,23.75c-15.48-1.2-32.53-10.42-45.56-23.75s-22-30.78-22-47.61Zm24.54,0h86.11v92.45c0,8-5.48,20.67-15,30.46-8.74,8.94-20.58,14.81-28,16.1-7.43-1.29-19.27-7.16-28-16.1-9.56-9.79-15-22.42-15-30.46Z" transform="translate(-37.27 -2.09)"/><path id="path63" class="cls-4" d="M70.26,31.28v90.47c0,7.14,5.25,19.63,14.48,29.07,8.3,8.49,19.77,14.16,26.59,15.44,6.82-1.28,18.3-6.95,26.6-15.44,9.23-9.44,14.48-21.93,14.48-29.07V31.28Z" transform="translate(-37.27 -2.09)"/><path id="path65" class="cls-5" d="M45.72,31.28v90.47c0,16.13,8.66,33.12,21.46,46.23s29.37,21.93,44.15,23.12c14.79-1.19,31.45-10.13,44.15-23.12S177,137.88,177,121.75V31.28H162.57v90.47c0,11.42-6.53,25.08-17.37,36.17-10.17,10.41-23,17.06-33.09,18.6l-.47.07a2.08,2.08,0,0,1-.61,0l-.46-.07h0c-10.07-1.54-22.92-8.19-33.09-18.6-10.84-11.09-17.38-24.75-17.38-36.17V31.28Z" transform="translate(-37.27 -2.09)"/><path id="path67" class="cls-6" d="M70.26,31.28h82.15v77.59H70.26Z" transform="translate(-37.27 -2.09)"/></g><g id="g1499"><path id="path71" class="cls-7" d="M102.37,41.17l5.36,4h0" transform="translate(-37.27 -2.09)"/><path id="path73" class="cls-1" d="M120.34,41.15h-6.71l-2.3-6.55v0l-2.27,6.51h-6.72l0,0,5.36,4-2,6.59,0,0,5.51-4h0l5.57,3.75h0l-2-6.41h0l5.47-3.91Z" transform="translate(-37.27 -2.09)"/><path id="path75" class="cls-8" d="M105.77,52.12a.39.39,0,0,1-.23-.07.39.39,0,0,1-.15-.44l1.88-6.32-5.17-3.82a.4.4,0,0,1,.23-.72h6.43l2.2-6.28a.39.39,0,0,1,.37-.27h0a.41.41,0,0,1,.38.27l2.2,6.28h6.43a.38.38,0,0,1,.37.28.38.38,0,0,1-.14.44l-5.26,3.75,2,6.09a.53.53,0,0,1,0,.17.4.4,0,0,1-.4.4h-.1a.31.31,0,0,1-.13-.06l-5.33-3.6L106,52.05a.39.39,0,0,1-.23.07Zm-2.23-10.57L108,44.82a.38.38,0,0,1,.15.43l-1.63,5.47,4.61-3.31a.41.41,0,0,1,.47,0l4.61,3.11-1.7-5.32a.42.42,0,0,1,.14-.45l4.48-3.19h-5.45a.42.42,0,0,1-.39-.27l-1.92-5.48-1.91,5.47a.4.4,0,0,1-.37.28h-5.51Z" transform="translate(-37.27 -2.09)"/><path id="path77" class="cls-9" d="M113.63,41.16l-2.3-6.55V44l2.33-2.81Z" transform="translate(-37.27 -2.09)"/><path id="path79" class="cls-7" d="M111.32,44l-8.95-2.8,5.36,4h0L111.32,44Z" transform="translate(-37.27 -2.09)"/><path id="path81" class="cls-7" d="M109.05,41.15,111.31,44h0V34.64Z" transform="translate(-37.27 -2.09)"/><path id="path85" class="cls-9" d="M109.05,41.15h-6.72l0,0L111.31,44Z" transform="translate(-37.27 -2.09)"/><path id="path87" class="cls-7" d="M111.33,44l9-2.8h-6.69Z" transform="translate(-37.27 -2.09)"/><path id="path89" class="cls-9" d="M111.33,44h0l3.53,1.1,5.47-3.91Z" transform="translate(-37.27 -2.09)"/><path id="path91" class="cls-7" d="M114.85,45.07h0L111.32,44h0l5.57,7.5Z" transform="translate(-37.27 -2.09)"/><path id="path93" class="cls-9" d="M111.32,44v3.77h0l5.57,3.76v0Zm-5.51,7.73L111.3,44l-3.57,1.16-2,6.59Z" transform="translate(-37.27 -2.09)"/></g><path id="path95" class="cls-7" d="M111.32,44h0l-5.49,7.72,5.51-4ZM39.49,4.31V121.75c0,18.32,9.54,36.57,23.24,50.58s31.55,23.83,48.52,25.06h.17c17-1.23,34.82-11,48.52-25.06s23.24-32.26,23.24-50.58V4.31H39.49Zm4.25,2.3H178.93a2,2,0,0,1,2,2h0V23.1a2,2,0,0,1-2,1.95H43.74a2,2,0,0,1-2-1.95h0V8.56a2,2,0,0,1,2-1.95Zm0,20.73H62.07a2,2,0,0,1,2,2v92.45c0,9.87,6,22.94,16.25,33.42,9.59,9.81,22,16.11,30.88,17.46h0l.16,0,.17,0h0c8.84-1.35,21.29-7.65,30.87-17.46,10.25-10.48,16.25-23.55,16.25-33.42V29.3a2,2,0,0,1,2-2h18.34a2,2,0,0,1,2,2h0v92.45c0,17.52-9.22,35.3-22.59,49s-30.67,23.08-46.82,24.33h-.3c-16.14-1.25-33.5-10.71-46.81-24.33s-22.59-31.46-22.59-49V29.3a2,2,0,0,1,2-2Zm24.54,0h86.11a2,2,0,0,1,2,2h0v92.45c0,8.93-5.71,21.71-15.6,31.83-9.05,9.26-21,15.26-29.07,16.66a1.89,1.89,0,0,1-.67,0c-8.07-1.4-20-7.4-29.08-16.66-9.89-10.12-15.6-22.9-15.6-31.83V29.3A2,2,0,0,1,68.28,27.34Z" transform="translate(-37.27 -2.09)"/></g><g id="g1805"><g id="g1366"><g id="g109"><path id="use99" class="cls-10" d="M91.8,92.7l-3.19,11,1.69-.07v1.93l-.94.51v.59l.94-.28v1.15l-1,.26v1.1h4.89v-1.1l-.95-.26v-1.15l.94.28v-.59l-.94-.51v-1.93l1.7.07Z" transform="translate(-37.27 -2.09)"/><path id="use101" class="cls-11" d="M87.93,92,84.61,102.9l1.76-.07v2.52l-1,.53v.61l1-.28v1.24l-1,.27v1.15h5.09v-1.15l-1-.27v-1.24l1,.28v-.61l-1-.53v-2.52l1.76.07Z" transform="translate(-37.27 -2.09)"/><path id="use103" class="cls-12" d="M84.19,91.34l-3.45,11,1.83-.08v2.25l-1,.55v.64l1-.3v2.05l-1,.27v1.2h5.29v-1.2l-1-.27v-2.05l1,.3V105l-1-.55v-2.25l1.84.08Z" transform="translate(-37.27 -2.09)"/><path id="use105" class="cls-13" d="M80.32,90.66l-3.59,11.49,1.91-.08v1.82l-1.06.57v.66l1.06-.31v2.53l-1.07.29v1.24h5.5v-1.24L82,107.34v-2.53l1.06.31v-.66L82,103.89v-1.82l1.91.08Z" transform="translate(-37.27 -2.09)"/><path id="use107" class="cls-14" d="M76.34,90.14l-3.69,10.92,2-.08v2l-1.09.59v.68l1.09-.32v3.34l-1.1.3v1.28h5.66v-1.28l-1.1-.3V104l1.08.32v-.68L78.07,103v-2l2,.08Z" transform="translate(-37.27 -2.09)"/></g><g id="g121"><path id="use111" class="cls-10" d="M130.66,92.7l3.19,11-1.7-.07v1.93l.94.51v.59l-.94-.28v1.15l.95.26v1.1h-4.89v-1.1l1-.26v-1.15l-.94.28v-.59l.94-.51v-1.93l-1.7.07Z" transform="translate(-37.27 -2.09)"/><path id="use113" class="cls-11" d="M134.53,92l3.32,10.88-1.77-.07v2.52l1,.53v.61l-1-.28v1.24l1,.27v1.15H132v-1.15l1-.27v-1.24l-1,.28v-.61l1-.53v-2.52l-1.77.07Z" transform="translate(-37.27 -2.09)"/><path id="use115" class="cls-12" d="M138.27,91.34l3.45,11-1.84-.08v2.25l1,.55v.64l-1-.3v2.05l1,.27v1.2h-5.29v-1.2l1-.27v-2.05l-1,.3V105l1-.55v-2.25l-1.83.08Z" transform="translate(-37.27 -2.09)"/><path id="use117" class="cls-13" d="M142.14,90.66l3.58,11.49-1.91-.08v1.82l1.06.57v.66l-1.06-.31v2.53l1.08.29v1.24h-5.5v-1.24l1.07-.29v-2.53l-1.06.31v-.66l1.06-.57v-1.82l-1.91.08Z" transform="translate(-37.27 -2.09)"/><path id="use119" class="cls-14" d="M146.12,90.14l3.69,10.92-2-.08v2l1.09.59v.68l-1.09-.32v3.34l1.1.3v1.28h-5.65v-1.28l1.1-.3V104l-1.09.32v-.68l1.09-.59v-2l-2,.08Z" transform="translate(-37.27 -2.09)"/></g></g></g><g id="g1422"><path id="path97" class="cls-4" d="M62,121.75c0,10.64,6.26,24,16.81,34.79.72.74,1.46,1.46,2.22,2.17h60.46c.75-.71,1.49-1.43,2.22-2.17,10.54-10.79,16.81-24.15,16.81-34.79H62Z" transform="translate(-37.27 -2.09)"/><g id="g141"><g id="g127"><path id="path123" class="cls-15" d="M62,120.35h98.52v1.4H62Z" transform="translate(-37.27 -2.09)"/><path id="path125" class="cls-15" d="M62,116.38h98.52v4H62Zm8.18-7.51H152.3v2.39H70.15Z" transform="translate(-37.27 -2.09)"/></g><g id="g139"><path id="path129" class="cls-16" d="M123,106l-7.47,10.47h14.93Z" transform="translate(-37.27 -2.09)"/><path id="path131" class="cls-17" d="M116.77,103.36l-9.29,13h18.59Z" transform="translate(-37.27 -2.09)"/><path id="path133" class="cls-16" d="M99.47,106l7.46,10.47H92Z" transform="translate(-37.27 -2.09)"/><path id="path135" class="cls-17" d="M105.68,103.36l9.29,13H96.39Z" transform="translate(-37.27 -2.09)"/><path id="path137" class="cls-18" d="M111.23,102l10.27,14.42H101Z" transform="translate(-37.27 -2.09)"/></g></g></g><g id="g1790"><path id="path143" class="cls-19" d="M94.27,74.83a68.58,68.58,0,0,0-7.57.46c4.81,2.5,10.12,4.55,13.61,8.26s6.07,9.39,10.92,9.2c4.85.19,7.53-5.59,10.92-9.2s8.8-5.76,13.61-8.26c-10.71-1.17-19.37-.53-21.19,7.26-.68,2.89-1.59,6.61-3.34,6.53-1.75.09-2.67-3.64-3.34-6.53-1.36-5.84-6.58-7.66-13.62-7.72Z" transform="translate(-37.27 -2.09)"/><path id="path145" class="cls-1" d="M93.27,76.72l3.18,1.64-.72.46,3.54,1-.72.25,3.59,2.52-.61.36,2.77,1.49,0,1.13,2.15,2-1.48-2.41,0-1.29-1.77-.92.23-.69-3.13-1.59.36-.54-2.57-1.34-.31-.53-1.28-.57.44-.13-.18-.46,2.9,1.51.72-.84L102.56,80l.61-.2,1.65,2.72,1.07.3,1.24,2.08-.57-2.74-1.1-.08-1.95-3.52-.57.47L100.68,77l-1.07.62-3.8-1.64-.13,1.18Zm35.92,0L126,78.36l.72.46-3.54,1,.71.25-3.59,2.52.62.36-2.77,1.49,0,1.13-2.16,2,1.49-2.41-.05-1.29,1.77-.92-.23-.69,3.13-1.59-.36-.54,2.57-1.34.3-.53,1.29-.57-.44-.13.18-.46-2.9,1.51-.72-.84L119.9,80l-.62-.2-1.64,2.72-1.08.3-1.23,2.08.57-2.74,1.1-.08,2-3.52.56.47L121.77,77l1.08.62,3.8-1.64.13,1.18Z" transform="translate(-37.27 -2.09)"/><path id="path147" class="cls-20" d="M111.23,61.65c-2,1.85-3.67,4.9-3.11,11.33l3.11-.78,3.11.78C114.89,66.55,113.22,63.5,111.23,61.65Z" transform="translate(-37.27 -2.09)"/><path id="path149" class="cls-21" d="M109.29,64.26c-.65.37-1.18.81-.72,1.81,1.53.59,2.12,1.89,2.66,3.23.54-1.34,1.13-2.64,2.66-3.23.46-1-.07-1.44-.73-1.81A4.3,4.3,0,0,0,111.23,66a4.3,4.3,0,0,0-1.93-1.72Z" transform="translate(-37.27 -2.09)"/><path id="path151" class="cls-22" d="M108.2,71.12c0,1-.39,2,.37,2.83,2.11,1.84,1.4,4.89,1.6,7.23.13,1.6.58,1.85,1.06,1.85s.93-.25,1.06-1.85c.19-2.34-.52-5.39,1.59-7.23.76-.84.4-1.86.38-2.83a4.79,4.79,0,0,1-6.06,0Z" transform="translate(-37.27 -2.09)"/><path id="path155" class="cls-19" d="M109.44,74.67c-.68,0,0,.67.17,1.33s0,.85.63.85h2.19c.61,0,.47-.32.63-.85s.85-1.33.17-1.33h-3.79Z" transform="translate(-37.27 -2.09)"/></g><g id="g1782"><path id="use157" class="cls-19" d="M52.77,49.52a5.54,5.54,0,0,0-2,3.08,5,5,0,0,0-3.18.56,4.66,4.66,0,0,0,2.72,2.13,6.78,6.78,0,0,0-.92,3.88,10.54,10.54,0,0,0,3.38-1.54,10.69,10.69,0,0,0,3.39,1.54,6.78,6.78,0,0,0-.92-3.88A4.63,4.63,0,0,0,58,53.16a5,5,0,0,0-3.19-.56A5.43,5.43,0,0,0,52.77,49.52Z" transform="translate(-37.27 -2.09)"/><path id="use161" class="cls-23" d="M52.67,51.74a3,3,0,0,0-1.08,1.66,2.65,2.65,0,0,0-1.71.3,2.53,2.53,0,0,0,1.46,1.15,3.72,3.72,0,0,0-.5,2.08,5.65,5.65,0,0,0,1.83-.83,5.78,5.78,0,0,0,1.82.83,3.64,3.64,0,0,0-.5-2.08,2.53,2.53,0,0,0,1.46-1.15,2.65,2.65,0,0,0-1.71-.3A3,3,0,0,0,52.67,51.74Z" transform="translate(-37.27 -2.09)"/><path id="use163" class="cls-24" d="M52.59,33.52c-1,.37-4.05.6-4.23,4.76A3.81,3.81,0,0,0,48.07,44l2.63,2.06,1.89-.46,1.88.46L57.1,44a3.81,3.81,0,0,0-.29-5.72c-.18-4.16-3.23-4.39-4.22-4.76Z" transform="translate(-37.27 -2.09)"/><path id="use165" class="cls-25" d="M48.57,38.11l-.41.33a2.22,2.22,0,0,0,2.26,1.43C49.71,39.39,48.71,39.27,48.57,38.11Z" transform="translate(-37.27 -2.09)"/><path id="use167" class="cls-25" d="M56.61,38.11l.41.33a2.22,2.22,0,0,1-2.26,1.43C55.47,39.39,56.46,39.27,56.61,38.11Z" transform="translate(-37.27 -2.09)"/><path id="use171" class="cls-26" d="M49.74,41.72a3.72,3.72,0,0,0,1,3.39L48.07,44c.88,2.94,3.52,1.75,4.52,4.9,1-3.15,3.64-2,4.51-4.9l-2.66,1.11a3.75,3.75,0,0,0,1-3.39c-.55,1.81-1.7,2.06-2.85,2.31-1.15-.25-2.3-.5-2.85-2.31Z" transform="translate(-37.27 -2.09)"/><path id="use173" class="cls-1" d="M48.71,40.46c-1.53.34.19,3.95.1,1.7.12-1.68,1.91-1.34,2.45-.13,1.24,1,2.69.14,3.43-1,1.66-1.32,1.44,1.4,2.05,1.9,1.29-.62,1-3.59-.67-3-.7.79-3.29.33-1.77-.72,1.83-.38,1.35-2.62,0-3.33C53,35,50.26,35.34,50,37.19c0,1.17,2.33,3.22,0,3.43a5.9,5.9,0,0,1-1.33-.16Z" transform="translate(-37.27 -2.09)"/><path id="use175" class="cls-19" d="M52.67,76.08a5.5,5.5,0,0,0-2,3.08,5,5,0,0,0-3.18.57,4.7,4.7,0,0,0,2.72,2.13,6.75,6.75,0,0,0-.92,3.87,10.48,10.48,0,0,0,3.39-1.54,10.33,10.33,0,0,0,3.38,1.54,6.75,6.75,0,0,0-.92-3.87,4.7,4.7,0,0,0,2.72-2.13,5,5,0,0,0-3.18-.57A5.54,5.54,0,0,0,52.67,76.08Z" transform="translate(-37.27 -2.09)"/><path id="use177" class="cls-23" d="M52.67,78.31A2.89,2.89,0,0,0,51.59,80a2.6,2.6,0,0,0-1.71.31,2.56,2.56,0,0,0,1.46,1.14,3.74,3.74,0,0,0-.5,2.08,5.63,5.63,0,0,0,1.83-.82,5.54,5.54,0,0,0,1.82.82,3.66,3.66,0,0,0-.5-2.08,2.56,2.56,0,0,0,1.46-1.14A2.66,2.66,0,0,0,53.74,80,2.93,2.93,0,0,0,52.67,78.31Z" transform="translate(-37.27 -2.09)"/><path id="use179" class="cls-24" d="M52.59,60.09c-1,.37-4.05.6-4.23,4.75a3.83,3.83,0,0,0-.29,5.73l2.63,2.06,1.89-.46,1.88.46,2.63-2.06a3.82,3.82,0,0,0-.29-5.73c-.18-4.15-3.23-4.38-4.22-4.75Z" transform="translate(-37.27 -2.09)"/><path id="use181" class="cls-25" d="M48.57,64.67l-.41.34a2.22,2.22,0,0,0,2.26,1.42C49.71,66,48.71,65.84,48.57,64.67Z" transform="translate(-37.27 -2.09)"/><path id="use183" class="cls-25" d="M56.61,64.67,57,65a2.22,2.22,0,0,1-2.26,1.42C55.47,66,56.46,65.84,56.61,64.67Z" transform="translate(-37.27 -2.09)"/><path id="use187" class="cls-26" d="M49.74,68.28a3.71,3.71,0,0,0,1,3.39l-2.67-1.1c.88,2.93,3.52,1.74,4.52,4.9,1-3.16,3.64-2,4.51-4.9l-2.66,1.1c.85-.66,1.13-1.91,1-3.39a2.91,2.91,0,0,1-5.7,0Z" transform="translate(-37.27 -2.09)"/><path id="use189" class="cls-1" d="M48.71,67c-1.53.35.19,4,.1,1.7.12-1.68,1.91-1.34,2.45-.13,1.24,1,2.69.15,3.43-1,1.66-1.32,1.44,1.4,2.05,1.89,1.29-.61,1-3.58-.67-3-.7.79-3.29.33-1.77-.73,1.83-.37,1.35-2.62,0-3.32C53,61.6,50.26,61.91,50,63.76c0,1.16,2.33,3.21,0,3.43A5.39,5.39,0,0,1,48.72,67Z" transform="translate(-37.27 -2.09)"/><path id="use191" class="cls-19" d="M52.67,102.94a5.5,5.5,0,0,0-2,3.08,5,5,0,0,0-3.18.56,4.7,4.7,0,0,0,2.72,2.13,6.78,6.78,0,0,0-.92,3.88,10.69,10.69,0,0,0,3.39-1.54,10.54,10.54,0,0,0,3.38,1.54,6.78,6.78,0,0,0-.92-3.88,4.7,4.7,0,0,0,2.72-2.13,5,5,0,0,0-3.18-.56A5.54,5.54,0,0,0,52.67,102.94Z" transform="translate(-37.27 -2.09)"/><path id="use193" class="cls-23" d="M52.67,105.16a3,3,0,0,0-1.08,1.66,2.65,2.65,0,0,0-1.71.3,2.48,2.48,0,0,0,1.46,1.14,3.76,3.76,0,0,0-.5,2.09,5.65,5.65,0,0,0,1.83-.83,5.78,5.78,0,0,0,1.82.83,3.67,3.67,0,0,0-.5-2.09,2.48,2.48,0,0,0,1.46-1.14,2.65,2.65,0,0,0-1.71-.3A3,3,0,0,0,52.67,105.16Z" transform="translate(-37.27 -2.09)"/><path id="use195" class="cls-24" d="M52.59,86.94c-1,.37-4.05.6-4.23,4.75a3.83,3.83,0,0,0-.29,5.73l2.63,2.06L52.59,99l1.88.46,2.63-2.06a3.82,3.82,0,0,0-.29-5.73c-.18-4.15-3.23-4.38-4.22-4.75Z" transform="translate(-37.27 -2.09)"/><path id="use197" class="cls-25" d="M48.57,91.53l-.41.33a2.22,2.22,0,0,0,2.26,1.43C49.71,92.81,48.71,92.69,48.57,91.53Z" transform="translate(-37.27 -2.09)"/><path id="use199" class="cls-25" d="M56.61,91.53l.41.33a2.22,2.22,0,0,1-2.26,1.43C55.47,92.81,56.46,92.69,56.61,91.53Z" transform="translate(-37.27 -2.09)"/><path id="use203" class="cls-26" d="M49.74,95.14a3.7,3.7,0,0,0,1,3.38l-2.67-1.1c.88,2.94,3.52,1.75,4.52,4.9,1-3.15,3.64-2,4.51-4.9l-2.66,1.1a3.73,3.73,0,0,0,1-3.38c-.55,1.81-1.7,2.06-2.85,2.31-1.15-.25-2.3-.5-2.85-2.31Z" transform="translate(-37.27 -2.09)"/><path id="use205" class="cls-1" d="M48.71,93.88c-1.53.34.19,4,.1,1.7.12-1.68,1.91-1.35,2.45-.13,1.24,1,2.69.14,3.43-1,1.66-1.32,1.44,1.4,2.05,1.9,1.29-.62,1-3.59-.67-3-.7.79-3.29.33-1.77-.72,1.83-.38,1.35-2.62,0-3.33-1.34-.87-4.06-.56-4.31,1.29,0,1.17,2.33,3.22,0,3.43a5.9,5.9,0,0,1-1.33-.16Z" transform="translate(-37.27 -2.09)"/><path id="use207" class="cls-24" d="M51.22,113.79c-.91.55-3.86,1.35-3.27,5.46a3.82,3.82,0,0,0,.79,5.68l3,1.53,1.76-.8,1.94.1,2.2-2.52a3.81,3.81,0,0,0-1.36-5.57c-1-4-4-3.7-5-3.88Z" transform="translate(-37.27 -2.09)"/><path id="use209" class="cls-25" d="M48.12,119.05l-.34.4a2.22,2.22,0,0,0,2.49,1C49.49,120.1,48.48,120.16,48.12,119.05Z" transform="translate(-37.27 -2.09)"/><path id="use211" class="cls-25" d="M56,117.54l.46.25a2.23,2.23,0,0,1-2,1.83C55.14,119,56.1,118.71,56,117.54Z" transform="translate(-37.27 -2.09)"/><path id="use215" class="cls-26" d="M50,122.37a3.7,3.7,0,0,0,1.62,3.14l-2.83-.58c1.41,2.72,3.78,1.06,5.35,4,.39-3.29,3.21-2.62,3.52-5.66l-2.41,1.58a3.71,3.71,0,0,0,.35-3.51,2.91,2.91,0,0,1-5.6,1.06Z" transform="translate(-37.27 -2.09)"/><path id="use217" class="cls-1" d="M48.71,121.33c-1.44.62.92,3.85.41,1.65-.2-1.67,1.62-1.67,2.38-.59,1.4.73,2.67-.35,3.18-1.61,1.39-1.61,1.69,1.1,2.37,1.48,1.15-.85.31-3.72-1.21-2.8-.54.91-3.17.94-1.88-.38,1.73-.72.84-2.83-.59-3.27-1.48-.61-4.1.21-4,2.07.23,1.14,2.89,2.72.68,3.36a6,6,0,0,1-1.34.09Z" transform="translate(-37.27 -2.09)"/><path id="path221" class="cls-27" d="M55.9,138.31a39.12,39.12,0,0,0,6.93,12.83" transform="translate(-37.27 -2.09)"/><path id="use223" class="cls-19" d="M54.61,130.15a5.47,5.47,0,0,0-1.48,3.36,4.93,4.93,0,0,0-3.05,1.07,4.68,4.68,0,0,0,3,1.66,6.87,6.87,0,0,0-.29,4,10.52,10.52,0,0,0,3.1-2.07,10.31,10.31,0,0,0,3.59,1A6.69,6.69,0,0,0,58,135.45a4.68,4.68,0,0,0,2.34-2.54,4.91,4.91,0,0,0-3.23,0A5.43,5.43,0,0,0,54.61,130.15Z" transform="translate(-37.27 -2.09)"/><path id="use225" class="cls-23" d="M55,132.34a3,3,0,0,0-.8,1.81,2.68,2.68,0,0,0-1.64.57,2.54,2.54,0,0,0,1.63.9,3.58,3.58,0,0,0-.15,2.13,5.37,5.37,0,0,0,1.66-1.11,5.66,5.66,0,0,0,1.93.53,3.58,3.58,0,0,0-.82-2A2.54,2.54,0,0,0,58,133.82a2.66,2.66,0,0,0-1.74,0A3,3,0,0,0,55,132.34Z" transform="translate(-37.27 -2.09)"/></g><g id="g1316"><path id="path229" class="cls-8" d="M160.76,149.37l.87-.69,4.41-3.81a19.69,19.69,0,0,0,4.15-5l.91-1.67a11.62,11.62,0,0,0,1.77-8.57,9.49,9.49,0,0,1-.23-2.09c0-.83,0-1-.11-.8a12.12,12.12,0,0,1-1.5,2.62,9.81,9.81,0,0,0-1.65,2.92,11.77,11.77,0,0,0-.31,6.71l.17.89a13.9,13.9,0,0,1-2.16,2.82c-.78.83-.81.85-.9.64a9.87,9.87,0,0,1-.09-1.68,22.5,22.5,0,0,1,.9-5.91l.41-1.59,1.18-1.81c2.57-3.91,3.9-6.49,4.35-8.45a10.73,10.73,0,0,1,.63-1.75,14.59,14.59,0,0,0,1.43-5.32,8.86,8.86,0,0,0-.48-3.58,9.6,9.6,0,0,1-.58-2.85v-.5l-.23.78a10.46,10.46,0,0,1-1.25,2.73,9.5,9.5,0,0,0-1.39,5.3,11,11,0,0,0,.7,4.07l.38,1.14-.25.73a28.24,28.24,0,0,1-1.36,3s0-.86,0-1.91l-.12-4.33-.2-4-.06-1.56.34-.56a10.9,10.9,0,0,0,1.5-5.08L172,109l.48-.74.74-1.27c.14-.3.31-.52.37-.49a11.32,11.32,0,0,0,1.35-2.84,11.79,11.79,0,0,0,.67-4,8.58,8.58,0,0,0-.78-4.41,9.14,9.14,0,0,1-.76-2.81v-.3l-.09.36-.27,1.11a14.29,14.29,0,0,1-.77,2,9.72,9.72,0,0,0-1.06,3.62,12.51,12.51,0,0,0,.84,5.51,4.47,4.47,0,0,1,.27.76,12,12,0,0,1-1.09,2.14c-.18.22-.19.22-.19,0a6.1,6.1,0,0,0-.51-1.18l-.5-1V98.19l.28-.56a14.07,14.07,0,0,0,1.05-3.25,11.07,11.07,0,0,0,.13-1.92l0-1.11.37-.59.62-1.06c.24-.42.27-.44.35-.25s.12.2.15.2a14.06,14.06,0,0,0,1.14-2.34c1.12-3,1.2-6.35.2-8.6a9,9,0,0,1-.82-2.64l-.11-.78-.12.59a9.76,9.76,0,0,1-1,2.85,9.89,9.89,0,0,0-1.05,3.62,12.09,12.09,0,0,0,.75,5.31l.27.71-.48.92-.54.91a11.35,11.35,0,0,1-.62-1.17l-.58-1.16V80.65l.27-.54a10.16,10.16,0,0,0,1.16-4.82l0-1.47.62-1c.54-.93.63-1,.7-.85s.12.19.15.19a8.59,8.59,0,0,0,1-1.88,14.15,14.15,0,0,0,1-5.37,8.72,8.72,0,0,0-.76-3.87,7.91,7.91,0,0,1-.75-2.51l-.11-.74-.11.6a9.86,9.86,0,0,1-1,2.85,9.83,9.83,0,0,0-1.05,3.62,12,12,0,0,0,.75,5.3l.27.71-.29.58-.53,1-.23.4-.15-.4c-.08-.22-.35-.76-.58-1.19l-.43-.79V63.05l.37-.76a11.82,11.82,0,0,0,1.1-4.37,1.72,1.72,0,0,1,.41-1.16c.43-.71,1.5-2.9,2-4.16a14.08,14.08,0,0,0,1-5.32,8.49,8.49,0,0,0-.73-3.8,8.55,8.55,0,0,1-.77-2.62l-.11-.73-.12.6a9.66,9.66,0,0,1-1,2.84,15,15,0,0,0-.78,2,11.67,11.67,0,0,0,.63,7.33l.37.9-.35.79c-.44,1-.72,1.46-.78,1.28l-.19-.68a9.81,9.81,0,0,0-.66-1.48l-.49-.93V46l.35-.87c1.3-3.21,1.24-6.17-.18-8.51a7.24,7.24,0,0,1-1-2.36l-.12-.56-.13.74a7.47,7.47,0,0,1-.86,2.52,8,8,0,0,0-.53,6,11.52,11.52,0,0,0,1.28,2.81l.37.56,0,3.12,0,3.12-.65,1.33-.71,1.46c0,.08-.09,0-.19-.22a2.09,2.09,0,0,1,0-1.77,12.81,12.81,0,0,0,.47-3.89,10,10,0,0,0-1.84-6.35,7.5,7.5,0,0,1-1.1-2.19l-.21-.6v1a9.55,9.55,0,0,1-.5,3,11.19,11.19,0,0,0,1.54,8.63,5.27,5.27,0,0,1,.46,1.1,15.43,15.43,0,0,0,.58,1.66,4,4,0,0,1,.45,2.11,9.77,9.77,0,0,0,1.33,4.86l.46.8,0,3.38,0,3.39-.55,1.06-.61,1.06a1.86,1.86,0,0,1-.27-.51l-.2-.51.19-.93c.78-3.77.29-7.07-1.41-9.48a9.39,9.39,0,0,1-1.19-2.34l-.21-.6,0,1.24a7.13,7.13,0,0,1-.33,2.17,9.26,9.26,0,0,0-.44,3.47,11.5,11.5,0,0,0,2.12,6.05,18.47,18.47,0,0,1,1,1.76c.4.85.41.9.32,1.36a11.26,11.26,0,0,0,.06,3.22,10.37,10.37,0,0,0,1.15,3l.46.79,0,3.34,0,3.34-.55,1.06-.61,1.07a1.86,1.86,0,0,1-.27-.51l-.2-.51.19-.94c.76-3.64.32-6.88-1.24-9.22a10.75,10.75,0,0,1-1.33-2.5l-.25-.69v.92a10.1,10.1,0,0,1-.51,3,6.63,6.63,0,0,0-.26,2.35A8.87,8.87,0,0,0,165,84a12.45,12.45,0,0,0,1.91,4.44,18,18,0,0,1,1,1.77c.4.86.41.9.32,1.37a12,12,0,0,0,0,3A10.23,10.23,0,0,0,169.57,98l.32.51v3c0,3.45,0,3.47-.8,4.94l-.46.86-.21-.49a2.75,2.75,0,0,1,0-2,14.62,14.62,0,0,0,.32-4.43,9.61,9.61,0,0,0-1.62-4.88,9.57,9.57,0,0,1-1.26-2.39l-.25-.69v.92a10.2,10.2,0,0,1-.51,3,6.78,6.78,0,0,0-.27,2.34,12.33,12.33,0,0,0,.12,2A13,13,0,0,0,166.7,105a6.84,6.84,0,0,1,.71,1.4,12.55,12.55,0,0,0,.53,1.29l.31.65-.08.89A9.22,9.22,0,0,0,169,114l.32.66,0,2,.2,4.45a42,42,0,0,1-.09,7.5,5.76,5.76,0,0,1-1.18,2.66l-.76,1.18-.06-1.42-.31-4-.25-2.53.28-.73a16.33,16.33,0,0,0,.51-1.64,11.21,11.21,0,0,0-.53-8,10,10,0,0,1-.89-2.6l-.12-.59-.1.73a10.16,10.16,0,0,1-.83,2.76,8.47,8.47,0,0,0-.82,4.17,8.38,8.38,0,0,0,.24,2.58,12.39,12.39,0,0,0,1.09,2.92c.37.71.37.72.6,2.86l.28,4.4.05,2.25-.42,1.62c-1,3.87-1.27,6.63-.82,8.39l.14.55-.27.23-1.09,1L161.14,148c-.1.07.05-.22.31-.64a16.52,16.52,0,0,0,2-5.23,6.47,6.47,0,0,1,.59-1.68,13.59,13.59,0,0,0,1.6-6.67,11.83,11.83,0,0,0-.66-3.1,8.61,8.61,0,0,1-.29-1.65l-.07-.88-.2.69a10,10,0,0,1-1.27,2.69,10.16,10.16,0,0,0-1.27,3.06,8.56,8.56,0,0,0-.21,2.4,10.17,10.17,0,0,0,.66,4.12c.3.9.31,1,.21,1.42a14.5,14.5,0,0,1-3.33,6.46,3,3,0,0,1-1.33,1.08Z" transform="translate(-37.27 -2.09)"/><path id="path231" class="cls-7" d="M162.65,141.09a11.19,11.19,0,0,1,.08-8,8.38,8.38,0,0,1,1.43-2.27l.25-.23-.07,1.46a52.85,52.85,0,0,1-1.12,8.43,6.79,6.79,0,0,1-.31,1.17,1.46,1.46,0,0,1-.26-.52Zm6.89-1.61a13.37,13.37,0,0,1-.22-5.87,9.56,9.56,0,0,1,2.21-4.3,2.73,2.73,0,0,1,.6-.54,29.76,29.76,0,0,1-.64,4.2c-.32,1.55-1,4.25-1.59,5.93C169.65,139.69,169.63,139.72,169.54,139.48ZM166.05,124a10.77,10.77,0,0,1-.69-8.93,6.46,6.46,0,0,1,.91-1.63s.11.67.2,1.45a40.52,40.52,0,0,1,.15,5l-.09,4.22-.08.65Zm6.2-.79a16.26,16.26,0,0,1-.72-2.31,12.89,12.89,0,0,1-.12-2.2,8.65,8.65,0,0,1,.69-4,8.21,8.21,0,0,1,1.37-2.19l.21-.19-.05,1.89a49.14,49.14,0,0,1-1,8l-.26,1.28Zm-2.57-8.64a7.9,7.9,0,0,1-.11-8.32l.5-.68c.18-.11.37,2.18.37,4.46a41.38,41.38,0,0,1-.26,4.77l-.07.5Zm-2-8.8a12.32,12.32,0,0,1-2.43-5.42,13.07,13.07,0,0,1,0-3.43c.24-1.12.72-2.32.82-2a46.44,46.44,0,0,1,1.15,5.5l.54,5.51a.4.4,0,0,1-.12-.12Zm5.56-.81c-1.51-3.25-1.3-7.43.5-10l.3-.41.05.35a50.81,50.81,0,0,1,.07,6.08l-.46,4.71s-.24-.31-.46-.77Zm-3.42-7.3a8.47,8.47,0,0,1-1.3-4.76,6.07,6.07,0,0,1,.25-2,7.48,7.48,0,0,1,1.19-2.38l.28-.36.07.25a43.14,43.14,0,0,1,0,9.5l-.06.49-.43-.72Zm-2.28-9a12.37,12.37,0,0,1-2.29-5.24,13.58,13.58,0,0,1,0-3.43c.24-1.13.72-2.33.82-2.05a47.14,47.14,0,0,1,1.15,5.51l.54,5.51a1.28,1.28,0,0,1-.26-.3Zm5.72-.59a10.38,10.38,0,0,1-1-4.35,9,9,0,0,1,1-4.72,7.32,7.32,0,0,1,.57-1l.26-.35.05.35a50.81,50.81,0,0,1,.07,6.08l-.47,4.71s-.23-.29-.43-.74Zm-3.42-7.91a8.69,8.69,0,0,1-1.32-4.79,5.8,5.8,0,0,1,.25-2,6.09,6.09,0,0,1,1.05-2.17c.41-.58.42-.59.49-.34a42.64,42.64,0,0,1,.12,8.32l-.17,1.64a2.84,2.84,0,0,1-.42-.61Zm-2.51-9.33a12.23,12.23,0,0,1-2-4.72,13.41,13.41,0,0,1,0-3.46,10.93,10.93,0,0,1,.68-2.15c.16-.28.14-.32.5,1.15.31,1.25.68,3.12.88,4.54l.49,5.23a5.92,5.92,0,0,1-.47-.59Zm6-.11a12.58,12.58,0,0,1-1-3.15,12.4,12.4,0,0,1,.14-4.22,9.89,9.89,0,0,1,1.2-2.73l.3-.44.08.28a45.61,45.61,0,0,1,.08,6.1l-.47,4.71s-.2-.2-.36-.55Zm-3.44-8.1a9.73,9.73,0,0,1-1.39-4.36,7.53,7.53,0,0,1,1.27-4.66c.45-.65.47-.67.54-.42a42.64,42.64,0,0,1,.12,8.32l-.17,1.64a2.05,2.05,0,0,1-.37-.52Zm-2.63-9.49a12.92,12.92,0,0,1-2-4.59,12.87,12.87,0,0,1,0-3.72c.19-.94.68-2.21.78-2a37.36,37.36,0,0,1,1.18,5.5,51.68,51.68,0,0,1,.53,5.5A3.91,3.91,0,0,1,167.22,53.18Zm6.07,0c-1.6-3.53-1.45-7.47.4-10.16l.28-.41.07.32a45.6,45.6,0,0,1,.08,6.06l-.47,4.72c-.05,0-.2-.17-.36-.53Zm-3.42-7.53a8.25,8.25,0,0,1-.32-9.32c.25-.37.29-.39.35-.22a29,29,0,0,1,.45,4.19,55.05,55.05,0,0,1-.13,5.82,3.07,3.07,0,0,1-.35-.47Z" transform="translate(-37.27 -2.09)"/><path id="path233" class="cls-9" d="M162.88,141.72c0-.05,0-.11,0-.12a30.73,30.73,0,0,0,.84-3.92,54,54,0,0,0,.6-5.67c.07-1.43.06-1.46-.11-1.32s-.16.12,0,0a.41.41,0,0,1,.2-.16,6.78,6.78,0,0,1,.79,1.84,7,7,0,0,1,.17,2,10.91,10.91,0,0,1-.6,3.84c-.46,1.41-1.71,3.81-1.86,3.57Zm6.68-2.05c0-.07,0-.09,0,0s.4-.83,1.09-3.29a49.28,49.28,0,0,0,1.29-5.92l.2-1.36c0-.23,0-.29-.07-.24s-.08,0,0-.05.29.11.52.82a9.93,9.93,0,0,1,.13,3.77,14.12,14.12,0,0,1-2.14,5.18c-.72,1.07-.91,1.29-1,1.14Zm-3-15.57c0-.39.1-2.3.1-4.25l-.15-4.95-.22-1.51c0-.06.06,0,.19.17a7.79,7.79,0,0,1,1.14,2.33,13.36,13.36,0,0,1-.85,8.4l-.26.52a4.32,4.32,0,0,1,.05-.71Zm5.79-.59c0-.06,0-.08,0-.05a5.43,5.43,0,0,0,.38-1.52,45.42,45.42,0,0,0,.91-7.69l.05-1.88-.22.18-.22.18.21-.23.21-.22.18.23a8.12,8.12,0,0,1,.91,3.74,14,14,0,0,1-1.06,5,15.06,15.06,0,0,1-1.28,2.4s-.06-.05-.1-.11Zm-2.08-9.1a42.09,42.09,0,0,0-.07-8.73l-.08-.29.35.38a6.18,6.18,0,0,1,1.08,2.13,10.09,10.09,0,0,1-.3,5.12,14.82,14.82,0,0,1-1.07,2.34s0-.43.09-.94Zm-2.49-9.24-.89-7L166,94.86c-.17-.31.08-.16.47.27a9.91,9.91,0,0,1,2,6.87,15.38,15.38,0,0,1-.56,3.59l-.13.35Zm5.91.57a11.4,11.4,0,0,0,.23-1.63,50,50,0,0,0,.24-8.26l-.05-1.23a4.42,4.42,0,0,1,.75,1.3c1,2.5.74,6.06-.71,9.22a2.43,2.43,0,0,1-.45.76c-.07,0-.07-.05,0-.16Zm-3.35-8a39.13,39.13,0,0,0,.23-4.76c0-2.84-.17-4.84-.39-4.71q-.1.06,0-.06c.14-.15.19-.09.76.77a8.14,8.14,0,0,1,.59,6.66,12.67,12.67,0,0,1-1.19,2.67,1.35,1.35,0,0,1,0-.58Zm-2.56-9.44-.89-7L166,78c-.2-.36.11-.14.55.39a9.8,9.8,0,0,1,1.91,6.75,15.38,15.38,0,0,1-.56,3.59l-.13.35Zm5.91.58a11.4,11.4,0,0,0,.23-1.63,50,50,0,0,0,.24-8.26l-.06-1.22a4.63,4.63,0,0,1,.82,1.45,11.22,11.22,0,0,1,.39,5.37C175,86.08,173.94,89,173.66,89,173.59,89,173.59,89,173.65,88.85Zm-3.38-8.1c0-.08,0-.8.12-1.61a41.93,41.93,0,0,0-.13-8.31l-.08-.32.34.38c1.37,1.52,1.76,4.41,1,7.17a11.42,11.42,0,0,1-1.22,2.69Zm3.37-9.23s0-.14,0-.22a36.66,36.66,0,0,0,.47-4.69,52.27,52.27,0,0,0-.06-6c0-.17-.1-.26-.16-.23s-.05,0,0-.07.15-.09.3.1c1.11,1.46,1.52,4.46,1,7.17-.29,1.39-1.35,4.17-1.53,4Zm-5.9-.78-.47-4.5A39.92,39.92,0,0,0,166,60.43c-.21-.37.12-.12.58.44a10.05,10.05,0,0,1,1.88,6.78A13.48,13.48,0,0,1,168,71l-.17.55Zm2.45-7.49a15.19,15.19,0,0,0,.2-1.7,45.23,45.23,0,0,0-.09-8.21l-.05-.37.33.37a6.53,6.53,0,0,1,1.1,2.21,10.41,10.41,0,0,1,.2,1.65,9.3,9.3,0,0,1-.53,3.66,11.83,11.83,0,0,1-1.11,2.4c-.07.06-.08.06-.05,0Zm-2.48-10.13a53.94,53.94,0,0,0-.9-7.17L166,42.81c-.17-.32.09-.17.45.27a10.66,10.66,0,0,1,1.9,8.37,10.11,10.11,0,0,1-.58,2.43,2.31,2.31,0,0,1-.08-.76Zm5.92.77a.14.14,0,0,1,0-.17,39,39,0,0,0,.48-4.74,49.27,49.27,0,0,0-.07-6c0-.21-.09-.32-.16-.28s0,0,0-.07.27,0,.71.85c1.25,2.44,1,6.38-.53,9.65-.22.45-.42.78-.46.75Zm-3.37-8,.09-2a36,36,0,0,0-.46-7.76l-.1-.27.37.36a6.54,6.54,0,0,1,1.31,2.5,11.15,11.15,0,0,1,0,4.31,14.31,14.31,0,0,1-1.07,2.93c-.13.17-.14.17-.14,0Z" transform="translate(-37.27 -2.09)"/></g><g id="g1409"><path id="path235" class="cls-4" d="M166.54,153.9l-.16-.14c-2.08-1.08-3.33-3.29-6.22-3.24-3.44.06-6.8,4.26-10.15,4.26-1.75-.15-6.12-4.26-8.38-4.26-2.85,0-6.17,3.84-9.19,3.84-3.84,0-7.09-3.84-11.53-3.84-3.07,0-7,3.67-9.68,3.67s-6.61-3.67-9.68-3.67c-4.44,0-7.69,3.84-11.53,3.84-3,0-6.34-3.84-9.19-3.84-2.26,0-6.63,4.11-8.38,4.26-3.36,0-6.71-4.2-10.15-4.26-2.89-.05-4.15,2.16-6.22,3.24l-.16.14A86,86,0,0,0,67.08,168c12.7,13,29.37,21.93,44.15,23.12C126,189.91,142.68,181,155.38,168a86,86,0,0,0,11.16-14.08Z" transform="translate(-37.27 -2.09)"/><path id="path237" class="cls-28" d="M163,159.49a5,5,0,0,0-2.79-.78c-3.44.06-6.8,4.26-10.16,4.26-1.74-.15-6.12-4.26-8.37-4.26-2.85,0-6.17,3.84-9.19,3.84-3.84,0-7.09-3.84-11.53-3.84-3.07,0-7,3.68-9.68,3.68s-6.61-3.68-9.68-3.68c-4.44,0-7.69,3.84-11.53,3.84-3,0-6.34-3.84-9.19-3.84-2.26,0-6.63,4.11-8.38,4.26-3.36,0-6.71-4.2-10.15-4.26a4.93,4.93,0,0,0-2.65.7m-3.57-5.65c2.07-1.08,3.33-3.29,6.22-3.24,3.44.06,6.79,4.26,10.15,4.26,1.74-.15,6.12-4.26,8.37-4.26,2.86,0,6.18,3.84,9.2,3.84,3.84,0,7.08-3.84,11.53-3.84,3.07,0,7,3.67,9.68,3.67s6.6-3.67,9.68-3.67c4.44,0,7.68,3.84,11.53,3.84,3,0,6.34-3.84,9.19-3.84,2.25,0,6.63,4.11,8.37,4.26,3.36,0,6.72-4.2,10.15-4.26,2.89-.05,4.15,2.16,6.22,3.24" transform="translate(-37.27 -2.09)"/><path id="path239" class="cls-29" d="M111.21,125.53A20.22,20.22,0,0,0,96.87,160a10.81,10.81,0,0,1,4.68-1.26c3.07,0,7,3.68,9.68,3.68s6.6-3.68,9.68-3.68a10.8,10.8,0,0,1,4.67,1.26,20.21,20.21,0,0,0-14.36-34.44Z" transform="translate(-37.27 -2.09)"/><path id="path972" class="cls-30" d="M99.73,152.21c3.9,2.34,8.63,3.9,16.37,2.78a22.4,22.4,0,0,1,4.26-.87c-10.43,0-14.1-1.91-20.63-1.91Z" transform="translate(-37.27 -2.09)"/><g id="g251"><path id="path241" class="cls-31" d="M111.09,129.22l-1.22,26.1" transform="translate(-37.27 -2.09)"/><g id="g249"><path id="path243" class="cls-32" d="M99.73,152.21,110.08,151l7.75,3.54" transform="translate(-37.27 -2.09)"/><path id="path245" class="cls-32" d="M101.74,153.3l8.34-2.31,5.1,4.12m-11.25-.91,6.15-3.21,3.57,4.27m-6.49-.23,2.92-4,1.59,4.37m-11.2-2.72,8.88-18.22" transform="translate(-37.27 -2.09)"/><path id="path247" class="cls-32" d="M99.84,146.86l10.1,3.22m-3.86-5.4,3.68,4.12" transform="translate(-37.27 -2.09)"/></g></g><path id="path253" class="cls-33" d="M110.08,151c.74-1.79,1.93-3.61,5.73-5.59-.43-7.25-1.45-13.67-1-22.13C110.1,127.09,107.49,134.18,110.08,151Z" transform="translate(-37.27 -2.09)"/><path id="path255" class="cls-34" d="M110.37,147.49l4.56-1.74c-.27-6.44-2.39-12.59-1.18-19.4C111.47,130.59,109.8,136.32,110.37,147.49Z" transform="translate(-37.27 -2.09)"/><path id="path257" class="cls-35" d="M111.14,145.64l2.61-.87a46.23,46.23,0,0,1-1-13.34,46.65,46.65,0,0,0-1.59,14.21Z" transform="translate(-37.27 -2.09)"/><path id="path259" class="cls-36" d="M96.14,150.21l.67-.66,2.25.46.67,2.2c3.9,2.34,8.63,3.9,16.37,2.78,3.82-1.19,6.94-1,10.32-1.29l-1.49,2.16c-6-2.55-11.45,3.28-13.7,3.28-1.75,0-5.59-3.39-9-3.79h-3A7.57,7.57,0,0,1,97,150.93Z" transform="translate(-37.27 -2.09)"/><path id="path261" class="cls-33" d="M129.24,149.11,110.08,151l1-21.77c3.4,11.44,14.44,17.11,18.15,19.89Z" transform="translate(-37.27 -2.09)"/><path id="path263" class="cls-34" d="M111.56,132.94c1.92,4.2,4.47,9,14.72,15.23-5.45-.59-10.64-.41-15.23,1.51,1.63-6.42.4-11.24.51-16.74Z" transform="translate(-37.27 -2.09)"/><path id="path265" class="cls-35" d="M112,136.66c1.4,3.79,1.79,7.6,0,11.71,2.52-1,3.8-2.17,11.3-1.14A41.7,41.7,0,0,1,112,136.65Z" transform="translate(-37.27 -2.09)"/><path id="path267" class="cls-33" d="M93.6,149l12.48-4.35c-2.33-12.51,2.11-15.35,5-15.46-10.38-1-18.07,2.53-17.49,19.81Z" transform="translate(-37.27 -2.09)"/><path id="path269" class="cls-34" d="M94.56,147.13l9.8-3.28c.6-4.84-.37-10.22,3.08-14.07-8.71.79-12.51,7.13-12.88,17.35Z" transform="translate(-37.27 -2.09)"/><path id="path271" class="cls-35" d="M95.84,145.29l7.55-2.26c-.27-6,.82-10.32,2.31-12C97.74,133.34,95.83,141.59,95.84,145.29Z" transform="translate(-37.27 -2.09)"/></g><line class="cls-37" x1="183.04" y1="121.6" x2="674.06" y2="121.6"/><path class="cls-38" d="M222.84,61.75V33.31h10q5.17,0,7.86,2a6.8,6.8,0,0,1,2.67,5.82,6.47,6.47,0,0,1-1.07,3.68,6.23,6.23,0,0,1-3,2.33,6,6,0,0,1,3.45,2.21A6.53,6.53,0,0,1,244,53.39a7.5,7.5,0,0,1-2.62,6.21c-1.75,1.41-4.23,2.12-7.46,2.15Zm5.86-16.52H233c3-.06,4.43-1.23,4.43-3.54a3.25,3.25,0,0,0-1.12-2.78,5.89,5.89,0,0,0-3.55-.85h-4.1Zm0,4.14V57h5a4.87,4.87,0,0,0,3.23-1,3.38,3.38,0,0,0,1.17-2.73q0-3.9-4.05-4Z" transform="translate(-37.27 -2.09)"/><path class="cls-38" d="M264.42,55.89H254.15l-2,5.86H246l10.58-28.44H262l10.65,28.44H266.4Zm-8.69-4.75h7.11L259.27,40.5Z" transform="translate(-37.27 -2.09)"/><path class="cls-38" d="M275.28,61.75V33.31H284A13.35,13.35,0,0,1,290.74,35a11.77,11.77,0,0,1,4.62,4.81A14.74,14.74,0,0,1,297,46.89V48.2a14.84,14.84,0,0,1-1.63,7,11.71,11.71,0,0,1-4.6,4.78,13.38,13.38,0,0,1-6.7,1.72Zm5.86-23.69V57H284a6.37,6.37,0,0,0,5.25-2.24,10.13,10.13,0,0,0,1.85-6.43v-1.5c0-2.89-.59-5.08-1.79-6.58A6.35,6.35,0,0,0,284,38.06Z" transform="translate(-37.27 -2.09)"/><path class="cls-38" d="M316.92,55.89H306.65l-1.95,5.86h-6.23l10.58-28.44h5.43l10.65,28.44H318.9Zm-8.69-4.75h7.11L311.77,40.5Z" transform="translate(-37.27 -2.09)"/><path class="cls-38" d="M350.91,61.75h-5.86L333.64,43V61.75h-5.86V33.31h5.86l11.43,18.75V33.31h5.84Z" transform="translate(-37.27 -2.09)"/><path class="cls-38" d="M374.89,50.34l-3,3.29v8.12H366V33.31h5.86V46.2l2.57-3.53,7.25-9.36h7.21L378.78,46l10.39,15.8h-7Z" transform="translate(-37.27 -2.09)"/><path class="cls-38" d="M408.49,49.43H397.24V57h13.2v4.71H391.38V33.31h19v4.75H397.24v6.78h11.25Z" transform="translate(-37.27 -2.09)"/><path class="cls-38" d="M419.74,51.73v10h-5.86V33.31H425a12.86,12.86,0,0,1,5.64,1.17,8.8,8.8,0,0,1,3.74,3.33,9.33,9.33,0,0,1,1.31,4.92,8.17,8.17,0,0,1-2.87,6.59q-2.85,2.41-7.92,2.41Zm0-4.75H425a5.17,5.17,0,0,0,3.55-1.09,4,4,0,0,0,1.22-3.12,4.68,4.68,0,0,0-1.23-3.38,4.58,4.58,0,0,0-3.4-1.33h-5.37Z" transform="translate(-37.27 -2.09)"/><path class="cls-38" d="M456.79,49.43H445.54V57h13.2v4.71H439.68V33.31h19v4.75H445.54v6.78h11.25Z" transform="translate(-37.27 -2.09)"/><path class="cls-38" d="M484.68,58.16a10.29,10.29,0,0,1-4.47,2.94,18.94,18.94,0,0,1-6.41,1,12.7,12.7,0,0,1-6.47-1.61,10.68,10.68,0,0,1-4.3-4.68,16.34,16.34,0,0,1-1.55-7.21V46.71a17.43,17.43,0,0,1,1.43-7.37,10.65,10.65,0,0,1,4.14-4.77,12,12,0,0,1,6.34-1.65c3.37,0,6,.81,7.91,2.41a10.32,10.32,0,0,1,3.38,7H479a5.75,5.75,0,0,0-1.73-3.58,5.54,5.54,0,0,0-3.68-1.13A5.22,5.22,0,0,0,469,39.89c-1,1.5-1.56,3.73-1.58,6.68v1.82c0,3,.57,5.24,1.7,6.76a5.82,5.82,0,0,0,5,2.28q3.3,0,4.71-1.4v-4.9h-5.33V46.81h11.19Z" transform="translate(-37.27 -2.09)"/><path class="cls-38" d="M505.48,55.89H495.21l-2,5.86H487l10.59-28.44H503l10.64,28.44h-6.23Zm-8.69-4.75h7.11L500.32,40.5Z" transform="translate(-37.27 -2.09)"/><path class="cls-38" d="M537.73,53.55l3.82-20.24h5.84l-6.31,28.44h-5.89l-4.63-19-4.63,19H520l-6.31-28.44h5.84l3.85,20.2,4.69-20.2h5Z" transform="translate(-37.27 -2.09)"/><path class="cls-38" d="M565.77,55.89H555.5l-2,5.86h-6.23L557.9,33.31h5.43L574,61.75h-6.23Zm-8.69-4.75h7.11L560.62,40.5Z" transform="translate(-37.27 -2.09)"/><path class="cls-38" d="M582.86,61.75H577V33.31h5.86Z" transform="translate(-37.27 -2.09)"/><path class="cls-38" d="M604.7,55.89H594.42l-1.95,5.86h-6.23l10.59-28.44h5.43L612.9,61.75h-6.23ZM596,51.14h7.11L599.54,40.5Z" transform="translate(-37.27 -2.09)"/><path class="cls-38" d="M638.68,61.75h-5.86L621.42,43V61.75h-5.86V33.31h5.86l11.42,18.75V33.31h5.84Z" transform="translate(-37.27 -2.09)"/><path class="cls-38" d="M653.76,61.75V33.31h8.75A13.35,13.35,0,0,1,669.22,35a11.84,11.84,0,0,1,4.62,4.81,14.74,14.74,0,0,1,1.66,7.08V48.2a14.84,14.84,0,0,1-1.63,7,11.71,11.71,0,0,1-4.6,4.78,13.38,13.38,0,0,1-6.7,1.72Zm5.86-23.69V57h2.83a6.39,6.39,0,0,0,5.26-2.24,10.13,10.13,0,0,0,1.85-6.43v-1.5q0-4.34-1.8-6.58a6.31,6.31,0,0,0-5.25-2.23Z" transform="translate(-37.27 -2.09)"/><path class="cls-38" d="M695.4,55.89H685.13l-2,5.86h-6.23l10.59-28.44H693L703.6,61.75h-6.23Zm-8.69-4.75h7.11L690.25,40.5Z" transform="translate(-37.27 -2.09)"/><path class="cls-38" d="M723.37,49.43H712.12V57h13.2v4.71H706.26V33.31h19v4.75H712.12v6.78h11.25Z" transform="translate(-37.27 -2.09)"/><path class="cls-38" d="M739.29,51.34h-4.67V61.75h-5.86V33.31h10.57q5,0,7.77,2.25a7.76,7.76,0,0,1,2.73,6.35,8.74,8.74,0,0,1-1.25,4.85,8.62,8.62,0,0,1-3.82,3.1l6.15,11.62v.27h-6.29Zm-4.67-4.75h4.73a4.8,4.8,0,0,0,3.41-1.12A4,4,0,0,0,744,42.38a4.31,4.31,0,0,0-1.15-3.17,4.73,4.73,0,0,0-3.5-1.15h-4.71Z" transform="translate(-37.27 -2.09)"/><path class="cls-38" d="M770.34,55.89H760.07l-2,5.86h-6.23l10.58-28.44h5.43l10.65,28.44h-6.23Zm-8.69-4.75h7.11L765.19,40.5Z" transform="translate(-37.27 -2.09)"/><path class="cls-38" d="M804.35,61.75h-5.86V49.56H787.06V61.75H781.2V33.31h5.86V44.84h11.43V33.31h5.86Z" transform="translate(-37.27 -2.09)"/><path class="cls-38" d="M230.83,90.73l-3.48,3.62V104H223.6V75.52h3.75V89.58L240,75.52h4.53L233.33,88.08,245.4,104h-4.49Z" transform="translate(-37.27 -2.09)"/><path class="cls-38" d="M264.39,96.51H252.47L249.8,104h-3.87l10.86-28.44h3.28L271,104H267.1ZM253.6,93.45h9.67l-4.84-13.3Z" transform="translate(-37.27 -2.09)"/><path class="cls-38" d="M274.78,104V75.52h9.29q4.64,0,7,1.91a6.93,6.93,0,0,1,2.33,5.67,5.8,5.8,0,0,1-1.13,3.52A7.41,7.41,0,0,1,289.15,89a6.56,6.56,0,0,1,3.64,2.46,7,7,0,0,1,1.34,4.3,7.63,7.63,0,0,1-2.48,6q-2.47,2.19-7,2.19Zm3.75-16.31h5.66a5.92,5.92,0,0,0,3.94-1.24,4.12,4.12,0,0,0,1.47-3.34,4.07,4.07,0,0,0-1.37-3.42,6.72,6.72,0,0,0-4.16-1.07h-5.54Zm0,3v10.24h6.19a6,6,0,0,0,4.13-1.36,4.75,4.75,0,0,0,1.51-3.74c0-3.42-1.86-5.14-5.58-5.14Z" transform="translate(-37.27 -2.09)"/><path class="cls-38" d="M319.7,75.52V94.85a9.13,9.13,0,0,1-2.53,6.59,10.22,10.22,0,0,1-6.81,2.87l-1,0a10.65,10.65,0,0,1-7.45-2.52,9.06,9.06,0,0,1-2.81-6.94V75.52h3.71V94.78a5.93,5.93,0,0,0,6.55,6.5,6.59,6.59,0,0,0,4.87-1.7,6.52,6.52,0,0,0,1.69-4.79V75.52Z" transform="translate(-37.27 -2.09)"/><path class="cls-38" d="M329.37,92.82V104h-3.75V75.52H336.1a10.54,10.54,0,0,1,7.32,2.38,8.09,8.09,0,0,1,2.64,6.31,8,8,0,0,1-2.58,6.38q-2.6,2.23-7.42,2.23Zm0-3.06h6.73a6.75,6.75,0,0,0,4.61-1.42,5.18,5.18,0,0,0,1.6-4.1,5.35,5.35,0,0,0-1.6-4.07,6.29,6.29,0,0,0-4.39-1.59h-6.95Z" transform="translate(-37.27 -2.09)"/><path class="cls-38" d="M363.86,96.51H351.94L349.27,104H345.4l10.86-28.44h3.28L370.42,104h-3.85Zm-10.78-3.06h9.66l-4.84-13.3Z" transform="translate(-37.27 -2.09)"/><path class="cls-38" d="M391.38,78.58h-9.14V104h-3.73V78.58h-9.12V75.52h22Z" transform="translate(-37.27 -2.09)"/><path class="cls-38" d="M411.67,90.81H399.35v10.08h14.31V104H395.6V75.52h17.87v3.06H399.35v9.16h12.32Z" transform="translate(-37.27 -2.09)"/><path class="cls-38" d="M440.19,104h-3.77L422.1,82V104h-3.77V75.52h3.77l14.36,22v-22h3.73Z" transform="translate(-37.27 -2.09)"/><path class="cls-38" d="M467.18,92.45H460.5V104h-3.77V75.52h9.41c3.21,0,5.67.73,7.4,2.19a7.86,7.86,0,0,1,2.58,6.36,7.63,7.63,0,0,1-1.43,4.63,8.54,8.54,0,0,1-4,3l6.68,12.07V104h-4Zm-6.68-3.07h5.76a6.52,6.52,0,0,0,4.44-1.44,4.91,4.91,0,0,0,1.65-3.88,5.15,5.15,0,0,0-1.57-4,6.69,6.69,0,0,0-4.54-1.43H460.5Z" transform="translate(-37.27 -2.09)"/><path class="cls-38" d="M497.45,90.81H485.13v10.08h14.31V104H481.38V75.52h17.87v3.06H485.13v9.16h12.32Z" transform="translate(-37.27 -2.09)"/><path class="cls-38" d="M509,75.52l9.29,23.2,9.3-23.2h4.86V104h-3.75V92.88L529,80.93l-9.33,23h-2.87l-9.32-23,.37,11.89V104h-3.75V75.52Z" transform="translate(-37.27 -2.09)"/><path class="cls-38" d="M539,104V75.52h9.3q4.63,0,7,1.91a6.91,6.91,0,0,1,2.34,5.67,5.8,5.8,0,0,1-1.13,3.52A7.41,7.41,0,0,1,553.41,89a6.56,6.56,0,0,1,3.64,2.46,7,7,0,0,1,1.34,4.3,7.63,7.63,0,0,1-2.48,6q-2.48,2.19-7,2.19Zm3.75-16.31h5.67a5.88,5.88,0,0,0,3.93-1.24,4.72,4.72,0,0,0,.11-6.76,6.72,6.72,0,0,0-4.16-1.07h-5.55Zm0,3v10.24H549a6,6,0,0,0,4.13-1.36,4.75,4.75,0,0,0,1.51-3.74c0-3.42-1.86-5.14-5.59-5.14Z" transform="translate(-37.27 -2.09)"/><path class="cls-38" d="M579.64,96.51H567.73L565.05,104h-3.87L572,75.52h3.28L586.2,104h-3.85Zm-10.78-3.06h9.67l-4.85-13.3Z" transform="translate(-37.27 -2.09)"/><path class="cls-38" d="M611.89,104h-3.77L593.8,82V104H590V75.52h3.77l14.36,22v-22h3.73Z" transform="translate(-37.27 -2.09)"/><path class="cls-38" d="M639.54,100.22a8.65,8.65,0,0,1-4,3.1,16.37,16.37,0,0,1-6,1,11.69,11.69,0,0,1-6.17-1.64,10.85,10.85,0,0,1-4.17-4.63,16,16,0,0,1-1.51-7V88.62q0-6.42,3-10a10.45,10.45,0,0,1,8.42-3.53,10.83,10.83,0,0,1,7.17,2.27,9.91,9.91,0,0,1,3.32,6.46h-3.75q-1-5.67-6.72-5.67a6.66,6.66,0,0,0-5.71,2.65q-2,2.66-2,7.67v2.33a12.16,12.16,0,0,0,2.18,7.61,7.09,7.09,0,0,0,5.92,2.83,13.08,13.08,0,0,0,3.69-.47,5.68,5.68,0,0,0,2.62-1.58V92.86h-6.58V89.79h10.31Z" transform="translate(-37.27 -2.09)"/><path class="cls-39" d="M449.51,164.26a6.31,6.31,0,0,0,.73,3.37c.25.46.42.87-.1,1.19s-.78-.15-1.05-.53c-1.94-2.82-.63-10.07,2.2-12a4.09,4.09,0,0,1,4.79-.13c1.52,1,1.1,2.58.76,4s-.84,2.82-1.17,4.25-.21,2.61,1.29,3.08a2.48,2.48,0,0,0,3.34-1.68c.72-2.12,1.25-4.31,1.93-6.44.83-2.61,2.59-4,4.85-3.87s3.33,1.21,3,3.42c-.25,1.74-.87,3.43-1.29,5.16-.36,1.45-.44,2.92,1.35,3.42s2.86-.38,3.38-2c.6-1.91,1.08-3.87,1.68-5.79A5.47,5.47,0,0,1,478,156a4.12,4.12,0,0,1,4.39.35c1.2.89,1,2.25.67,3.44-.7,2.77-1.6,5.49-2.27,8.27-.36,1.45-1.37,1-2.19.95-1.08-.14-.71-1-.54-1.65.73-2.69,1.5-5.36,2.24-8,.23-.82.57-1.8-.45-2.24s-1.78.19-2.38,1a11.38,11.38,0,0,0-1.56,4.09c-.36,1.27-.7,2.54-1.15,3.77a5,5,0,0,1-6.41,3c-2.21-.66-3-2.61-2.27-5.52.39-1.49.85-3,1.2-4.48.15-.65.32-1.47-.46-1.86a1.82,1.82,0,0,0-2.11.55,5.75,5.75,0,0,0-1.36,2.65c-.54,1.86-1,3.73-1.65,5.56a5,5,0,0,1-7.21,2.75c-2-1.06-2-2.84-1.61-4.65.3-1.51.9-3,1.23-4.47.19-.84.67-2-.53-2.43a2.08,2.08,0,0,0-2.49,1.25A13.59,13.59,0,0,0,449.51,164.26Z" transform="translate(-37.27 -2.09)"/><path class="cls-39" d="M354.12,163.59c.17-2.67,1-5.08,3.58-6.29s5.38-1.53,7.63.9c.54.59.72.21,1.07,0,3.57-2.56,7.16-3.54,10.78-.06.65.63.93-.18,1.3-.44a8.66,8.66,0,0,1,7.92-1.24c2,.59,2.83,1.87,2.36,3.85-.62,2.63-1.41,5.22-2.1,7.84-.34,1.32-1.36,1.09-2.23,1-1.41-.2-.6-1.17-.44-1.78.57-2.25,1.29-4.46,1.86-6.7s-.13-3.11-2.51-3.2c-3-.12-5,1.5-6.09,4.12a35.47,35.47,0,0,0-1.95,6.18c-.34,1.58-1.3,1.65-2.36,1.35-1.28-.36-.52-1.37-.33-2.08.59-2.24,1.28-4.46,1.9-6.7.49-1.77-.37-2.63-2.05-2.86-2.84-.37-5.13.94-6.55,3.78a31.45,31.45,0,0,0-2.09,6.62c-.39,1.56-1.42,1.5-2.45,1.23-1.24-.33-.45-1.23-.28-1.88.58-2.17,1.25-4.31,1.79-6.48.47-1.93-.26-2.76-2.24-2.81a4.5,4.5,0,0,0-4.35,2.54,5.82,5.82,0,0,0,.09,6.37c.28.42,1.29.76.51,1.45s-1.24-.25-1.58-.71A5.73,5.73,0,0,1,354.12,163.59Z" transform="translate(-37.27 -2.09)"/><path class="cls-40" d="M277.67,156.94c2.2,3.39,1.39,6.59.09,9.72-.54,1.3-1.38,2.59-3.08,2.33s-2-1.73-2.26-3.13c-.07-.38-.07-.76-.14-1.66-.61,1.28-1,2.14-1.44,3a3.32,3.32,0,0,1-4.11,1.76,3.14,3.14,0,0,1-2.41-3.5c.06-2.05.92-3.9,1.37-5.85.19-.85.68-2-.39-2.5s-2.15.26-2.64,1.28c-1.36,2.84-2.24,5.78-1,8.94.2.52.89,1.16,0,1.54s-1-.57-1.2-1.05c-1.36-2.73-.46-8.52,1.63-10.78a4.43,4.43,0,0,1,5.28-1c1.87,1.05,1.43,2.71,1.05,4.3s-.91,3.44-1.3,5.17c-.19.84-.21,1.81.82,2.12s1.53-.55,1.92-1.31.74-1.71,1.08-2.57a1.59,1.59,0,0,1,1.74-1.21c1.06.13,1.05,1,1.11,1.75.09,1.25-.33,3.1,1.28,3.26s1.69-1.72,2.08-2.93a16,16,0,0,0,.59-2.48c.42-2.71-.74-4.42-3.43-5.13-.39-.1-1,.2-1-.58a.76.76,0,0,1,.73-.77c3.62,0,7.27-.47,10.86.27a2.31,2.31,0,0,1,1.7,3.1c-.76,3.08-1.72,6.1-2.5,9.17-.33,1.34-1.29.92-2,.85-1.21-.13-.86-1-.64-1.76.77-2.67,1.5-5.36,2.27-8,.45-1.57.05-2.39-1.74-2.28C280.65,157,279.34,156.94,277.67,156.94Z" transform="translate(-37.27 -2.09)"/><path class="cls-40" d="M393.23,165.24a16.14,16.14,0,0,1,1.86-6.44,4.18,4.18,0,0,1,6.32-1.53c.83.58,1.24.56,1.92,0a5.85,5.85,0,0,1,3.21-1.22c4.5-.5,6.21,1.53,5,5.88-1.55,5.42-3.12,10.84-4.66,16.27-.43,1.55-.91,3.15-.34,4.77.18.53.17.93-.34,1.15s-.85-.19-1.13-.54c-1.58-2-1.41-4.16-.78-6.39,1.49-5.28,3-10.56,4.5-15.84.34-1.22,1.15-2.66-.32-3.56s-3-.42-4.33.54a6.9,6.9,0,0,0-2.34,3.91c-.55,1.85-1.13,3.7-1.55,5.58-.35,1.52-1.38,1.52-2.47,1.25-1.35-.33-.41-1.28-.27-1.87.55-2.25,1.25-4.46,1.84-6.7.22-.86.76-2-.36-2.49a1.92,1.92,0,0,0-2.51,1.12,12.74,12.74,0,0,0-1.78,7.54c.07.59,1,1.43-.06,1.73s-1-.89-1.25-1.55A6.47,6.47,0,0,1,393.23,165.24Z" transform="translate(-37.27 -2.09)"/><path class="cls-40" d="M434.85,156.94c1.93,4,1.64,7.23-.79,9.79-2.1,2.21-6.75,3.05-10,1.78a3.69,3.69,0,0,1-2.52-4.58c.32-1.51.77-3,1.18-4.48.25-.91.66-2-.48-2.42a2,2,0,0,0-2.49,1.22c-1.37,2.82-2.36,5.72-1.17,8.9.21.56,1.11,1.28,0,1.7s-1.05-.71-1.25-1.27c-1.34-3.72-.45-7.19,1.56-10.37a4.17,4.17,0,0,1,5.4-1.23c1.91,1,1.5,2.64,1.08,4.26-.36,1.34-.69,2.69-1.1,4a2.16,2.16,0,0,0,1.59,3.06c4.25,1.22,8.66-.67,8.92-5.86.13-2.77-1.16-4.07-4.57-4.74,0-1,.66-1.2,1.53-1.19,2.87,0,5.74,0,8.6,0,2.58.06,3.68,1.4,3.1,3.95-.65,2.86-1.58,5.65-2.3,8.5-.35,1.36-1.36,1.1-2.21,1-1.07-.17-.7-1.06-.53-1.67.68-2.54,1.47-5.05,2.15-7.59.63-2.34.28-2.76-2.05-2.78Z" transform="translate(-37.27 -2.09)"/><path class="cls-40" d="M334.68,167.64c3.66,0,4.6-.72,5.61-4.19.47-1.63.92-3.28,1.53-4.86a4.28,4.28,0,0,1,4.35-2.87c2.58,0,3.7,1.39,3.08,3.9-.66,2.7-1.55,5.35-2.18,8.06-.31,1.34-1.08,1.54-2.17,1.33-1.41-.26-.81-1.18-.58-2l2.06-7.37c.27-1,.79-2.12-.54-2.58-1.08-.37-1.9.46-2.45,1.34a15.57,15.57,0,0,0-1.64,4.81c-.67,2.71-1.72,5.07-4.78,5.6a14.11,14.11,0,0,1-6.89-.28,3.72,3.72,0,0,1-2.73-4.86c.32-1.35.84-2.66,1.14-4,.21-.92.71-2.18-.6-2.61a2.13,2.13,0,0,0-2.43,1.41c-1.34,2.77-2.19,5.63-1.06,8.72.19.52,1,1.15.12,1.59s-1.14-.59-1.33-1.11c-1.37-3.72-.5-7.19,1.55-10.37a4.4,4.4,0,0,1,5.46-1.19c1.84,1,1.36,2.73,1,4.33-.25,1-.53,1.94-.8,2.91-.85,3,.05,4.2,3.16,4.27Z" transform="translate(-37.27 -2.09)"/><path class="cls-40" d="M255,159.62c-.7,2.5-1.53,5.63-2.46,8.73-.36,1.18-1.44.71-2.18.59-.9-.14-.57-.91-.42-1.49.69-2.53,1.4-5.06,2.11-7.58.28-1,.54-2.08-.55-2.7a2.61,2.61,0,0,0-3,.51,7.05,7.05,0,0,0-2.21,3.73c-.64,2.14-1.34,4.28-1.8,6.47-.3,1.39-1.21,1.22-2.09,1.13-1.26-.13-.87-1.09-.69-1.78.59-2.24,1.27-4.46,1.89-6.69.34-1.24,1.06-2.79-.57-3.45s-3,.13-4,1.59a10.24,10.24,0,0,0-.62,1.24c-.19.37-.43.65-.9.45a.56.56,0,0,1-.39-.72c.38-1.28.2-2.38-1.3-2.67a3.1,3.1,0,0,0-3.45,1.78c-.22.4-.37.85-.58,1.26a.65.65,0,0,1-1,.31c-.33-.16-.29-.45-.25-.78.36-3,4.54-5.11,7-3.44a1.9,1.9,0,0,0,2.33.09c2.12-1,4.38-1.24,6.21.65.71.74,1,.25,1.48-.12a5.45,5.45,0,0,1,5.23-.91C254.4,156.32,255.11,157.36,255,159.62Z" transform="translate(-37.27 -2.09)"/><path class="cls-41" d="M297.38,147.49c0,4.2,3.23,6.18,7.39,4.55.47-.18,1-.8,1.37-.13s-.3,1-.82,1.32c-4.26,2.36-9.08-.44-9.29-5.4-.29-6.64,5.54-13.37,12.24-14.17a15.22,15.22,0,0,1,6.41.29,9.83,9.83,0,0,1,7.31,8.67,11.34,11.34,0,0,1-5.24,10.69c-.55.31-1.09.77-1.61.1s.25-1.09.61-1.5a13.65,13.65,0,0,0,3.5-7.69c.58-5.37-2.83-9.21-8.35-9.52C304,134.32,297.33,140.62,297.38,147.49Z" transform="translate(-37.27 -2.09)"/><path class="cls-40" d="M564.22,158.63a10.69,10.69,0,0,1,10.44-2.7c2,.52,2.92,1.83,2.5,3.77-.58,2.71-1.42,5.37-2.15,8.05-.37,1.33-1.45,1-2.29.84-1.22-.18-.53-1.05-.37-1.62.62-2.31,1.35-4.59,1.92-6.91.53-2.16-.19-3-2.43-3.12-3.8-.19-6.69,1.61-8.34,5.39a23.68,23.68,0,0,0-1.59,4.82c-.3,1.5-1.17,1.76-2.31,1.46-1.53-.4-.55-1.49-.36-2.23.55-2.17,1.26-4.3,1.82-6.47s-.15-2.91-2.27-3a9.9,9.9,0,0,0-4.35.45c-.59.26-1.15.53-1.16,1.27s.51.86,1,1.2,1.48.11,1,1.12-1.25.21-1.73,0a2.39,2.39,0,0,1-1.61-2.33,2.5,2.5,0,0,1,1.7-2.28,12.74,12.74,0,0,1,8.61-.28C563.32,156.43,563.75,157.5,564.22,158.63Z" transform="translate(-37.27 -2.09)"/><path class="cls-42" d="M353.36,143.68a10.63,10.63,0,0,1-4.58,9.16c-.63.47-1.36,1.46-2.17.61s.41-1.32.81-1.83a13.05,13.05,0,0,0,3.21-8.26c.06-5.33-3.65-8.91-9-8.66a13.55,13.55,0,0,0-12.82,11.35c-.37,2.11-.06,4.07,1.62,5.51s3.66,1.36,5.65.52c.47-.2,1.07-1,1.49,0s-.54,1-1,1.21c-4.48,2.34-9.39-.88-9.21-6,.31-9.35,10.47-16.26,19.27-13.1A9.73,9.73,0,0,1,353.36,143.68Z" transform="translate(-37.27 -2.09)"/><path class="cls-41" d="M499.75,184.14c-2.22,2.62-4.41,4.48-7.43,5.15-3.38.76-7.06-.37-8.76-2.8s-1.37-6.28.61-9.16c2.48-3.61,6.23-5.14,10.2-6.34.44-.14,1-.23,1.18.33.27.74-.3.86-.85,1.05a15.7,15.7,0,0,0-6.67,4,10.69,10.69,0,0,0-2.88,6.68c-.28,3.64,3,5.89,7.11,4.88a11.28,11.28,0,0,0,5.76-3.66c.6-.67,1.16-1.6,2.29-1.17s.9,1.3,1,2.15c.12,1.25.27,2.62,1.87,2.8s2.19-1.22,2.55-2.48c1-3.42.33-6.73-.79-10-.16-.48-.94-1.13,0-1.55s1,.52,1.15,1a16.88,16.88,0,0,1,.88,10.88c-.53,1.89-1.38,3.58-3.67,3.55s-2.94-1.89-3.31-3.8C499.94,185.31,499.88,184.93,499.75,184.14Z" transform="translate(-37.27 -2.09)"/><path class="cls-42" d="M582.94,168.33c6.5,3.55,6.54,9.95.54,15.15-.37.31-.76.69-1.22.37-.66-.47-.13-1,.12-1.4,1.38-2.42,2.8-4.83,2.67-7.78a5.47,5.47,0,0,0-3.42-5.31c-.42-.18-1.2-.06-1.24-.79s.68-1,1.2-1.27a11.65,11.65,0,0,0,6.23-7.4c.26-1,.55-2-.49-2.74a1.51,1.51,0,0,0-1.93.17,2.29,2.29,0,0,0-.73,2.71c.2.5.7,1.05,0,1.38s-1-.42-1.27-1a3.38,3.38,0,0,1,.81-3.85,3.78,3.78,0,0,1,4.08-.88,3.1,3.1,0,0,1,2.42,3,7.49,7.49,0,0,1-3.09,6.21C586.15,166.19,584.51,167.22,582.94,168.33Z" transform="translate(-37.27 -2.09)"/><path class="cls-43" d="M231.66,169.08a21.28,21.28,0,0,1-2.78-.18c-3.65-.69-4.78-2.56-3.8-6.16.31-1.12.65-2.23.95-3.35.22-.82.58-1.8-.38-2.29a1.86,1.86,0,0,0-2.53,1c-1.46,2.8-2.35,5.72-1.31,8.91.18.57,1.17,1.28.21,1.75-1.12.56-1.2-.7-1.4-1.3a11.38,11.38,0,0,1,1.67-10.35A3.94,3.94,0,0,1,227.5,156c2.09,1,1.62,2.7,1.15,4.4-.35,1.27-.66,2.55-1,3.81-.54,1.8.24,3,1.92,3.29a11.64,11.64,0,0,0,6.19-.27c1.27-.47,1.94-1.21.48-2.22-.51-.35-1-.6-.66-1.2s.94-.18,1.41,0a2.08,2.08,0,0,1,1.4,1.95,2.47,2.47,0,0,1-1.51,2.39A11,11,0,0,1,231.66,169.08Z" transform="translate(-37.27 -2.09)"/><path class="cls-44" d="M402.89,146.23a3.92,3.92,0,0,1,2.69,1c.64.53,1.5,1.43.88,2.07-.88.91-1.07-.55-1.61-.91a4.91,4.91,0,0,0-1.43-.67c-.43-.1-1-.12-1.15.47s.2.69.52.92c.51.35,1,.68,1.51,1.07,2,1.67,1.87,4-.37,5.31-.28.16-.59.62-.95.14-.16-.21-.35-.7-.27-.77,1.78-1.64,0-2.19-.91-2.91-1.54-1.22-2.1-2.65-1.1-4.42A2.6,2.6,0,0,1,402.89,146.23Z" transform="translate(-37.27 -2.09)"/><path class="cls-40" d="M320.33,189.43a6,6,0,0,0-3.16-2.27A24.31,24.31,0,0,0,313,186c-2.08-.26-2.36-1.28-1.83-3,.81-2.67,1.53-5.36,2.24-8a3.07,3.07,0,0,0-1.52-3.76c-3.22-1.84-9.19-.7-10.38,2.71-1.31,3.77-3.32,3.38-6.23,2.3a12.13,12.13,0,0,0,.33-1.32c.21-1.46.62-3-1.06-3.92a4.2,4.2,0,0,0-4.79.41c-2.07,1.55-4.05,9-3.07,11.44.19.47.27,1.19,1,1s.37-.77.25-1.33c-.69-3.3.65-6.24,1.86-9.15A2,2,0,0,1,292.4,172c1.13.49.59,1.63.37,2.47-.68,2.54-1.46,5.05-2.15,7.59-.18.68-.68,1.64.54,1.86,1,.18,2,.33,2.22-1.22.1-.91.59-1.77.75-2.67.26-1.46.74-2.59,2.51-2.06,1.32.4,3.21.11,2.87,2.61a2.93,2.93,0,0,0,2,3.33,1.47,1.47,0,0,0,1.83-.65c.8-1.46.1-2.68-.86-3.78a7.15,7.15,0,0,0-.83-.82,1.17,1.17,0,0,1-.35-1.24,6.32,6.32,0,0,1,7.1-5.53c1.8.18,2.7,1.06,2.17,3-.63,2.31-1.29,4.61-1.93,6.92-1.12,4.09-.59,4.78,3.61,5.51,2.64.46,5.35.87,7.24,3.18.54.66.46,2.61,1.79,1.71C322.11,191.54,320.9,190.25,320.33,189.43Zm-17.95-7.3a.47.47,0,0,1-.7.36c-1-.52-.94-1.46-1-2.62A2.32,2.32,0,0,1,302.38,182.13Z" transform="translate(-37.27 -2.09)"/><path class="cls-40" d="M315.56,156a8.07,8.07,0,0,0-10.84,5c-.41,1.17-.76,1.7-2,1a3.52,3.52,0,0,0-1.78-.43c-1.52.12-1.35-.72-1.07-1.66.46-1.5.62-3-1-3.91a4.21,4.21,0,0,0-5.16.62c-1.92,1.68-3.67,8.74-2.81,11.13.17.5.28,1.22,1,1.08.94-.2.44-.88.32-1.47-.66-3.38.66-6.37,2-9.31a1.86,1.86,0,0,1,2.53-1c1,.48.61,1.44.37,2.28-.73,2.6-1.44,5.21-2.19,7.81-.21.76-.62,1.62.57,1.81.83.13,1.89.4,2.12-1,.16-1,.59-1.92.8-2.9.3-1.41.77-2.58,2.54-2,1.32.43,3.25.12,2.9,2.62a2.81,2.81,0,0,0,1.94,3.31,1.53,1.53,0,0,0,1.95-.85c.71-1.46-.15-2.51-1-3.56a5.79,5.79,0,0,0-.66-.65,1.35,1.35,0,0,1-.54-1.37,6.35,6.35,0,0,1,6.12-5.6c3-.06,3.76.92,3,3.8-.62,2.23-1.28,4.45-1.88,6.69-.18.66-.41,1.5.68,1.57.8.06,1.73.34,2.06-.9.72-2.76,1.59-5.49,2.23-8.28A3.06,3.06,0,0,0,315.56,156Zm-8.86,11.27a.47.47,0,0,1-.7.32,2.18,2.18,0,0,1-.88-2.57A2.21,2.21,0,0,1,306.7,167.28Z" transform="translate(-37.27 -2.09)"/><path class="cls-40" d="M512.85,156.29c-3.22-1.83-9.16-.74-10.4,2.67-1.33,3.66-3.23,3.56-6.23,2.29.11-.44.28-.95.36-1.47.2-1.31.48-2.73-.86-3.59a4.13,4.13,0,0,0-4.2-.24,4.37,4.37,0,0,0-2.24,2.26,26.83,26.83,0,0,0-2,7.36,4.51,4.51,0,0,0,.37,2.5c.19.41.32,1,.89.83s.48-.7.35-1.3c-.76-3.37.58-6.38,1.88-9.34a1.93,1.93,0,0,1,2.47-1.22c1.14.46.71,1.6.49,2.44-.67,2.54-1.46,5.05-2.14,7.58-.18.67-.72,1.65.47,1.91.94.2,2,.37,2.25-1.17.18-1.14.72-2.22.9-3.36a1.56,1.56,0,0,1,2.33-1.37c1.08.4,3-.22,2.88,2.08-.11,1.62.24,3.14,2,3.8a1.47,1.47,0,0,0,2-.78c.7-1.72-.24-3-1.41-4.1a1.67,1.67,0,0,1-.68-1.77,6.21,6.21,0,0,1,6.54-5.36c2.45.06,3.21,1,2.61,3.38s-1.27,4.61-1.94,6.91c-.22.77-.61,1.62.61,1.76.75.08,1.71.44,2-.85.7-2.77,1.53-5.51,2.21-8.29A3,3,0,0,0,512.85,156.29Zm-9.55,11a.48.48,0,0,1-.73.27,2.3,2.3,0,0,1-.77-2.61C502.87,165.59,503.41,166.28,503.3,167.3Z" transform="translate(-37.27 -2.09)"/><path class="cls-40" d="M544.12,167a10.77,10.77,0,0,0-2.36-1.45c-4.06-1.91-8.13-1.23-12.18,0-1.91.6-3.75,1.43-5.68,2-2.23.61-3.07-.39-2.36-2.59a11.75,11.75,0,0,1,3.43-4.88c1.39-1.3,2.73-2.2,4.54-.51a5.93,5.93,0,0,0,2.56,1c2.28.55,4.33-.41,4.5-2s-1.41-2.81-3.74-2.94h-1.07a20.5,20.5,0,0,0-2.82.5c-4,1.18-7.45,3.09-9.54,6.83-.88,1.58-1.56,3.39-.19,5,1.24,1.47,3,1.37,4.75,1,1.49-.34,2.93-.92,4.39-1.39,5.1-1.62,10.13-2,15,.74.58.33,1.31,1.39,1.93.4S544.63,167.42,544.12,167Zm-10.24-9.91c.62.12,1.47.43,1.27,1.36-.15.71-.8.81-1.47.84a6.57,6.57,0,0,1-4.52-1.62A6.36,6.36,0,0,1,533.88,157.08Z" transform="translate(-37.27 -2.09)"/></svg>